<svg version="1.2" xmlns="http://www.w3.org/2000/svg" viewBox="0 0 45 34" width="45" height="34">
	<title>Calzado_icono-svg</title>
	<style>
		.s0 { fill: #009fe3 } 
		.s1 { fill: #009ee2 } 
	</style>
	<path id="Layer" class="s0" d="m23 8.6l-1.1 0.5q-0.2 0.1-0.3 0.1-0.2 0-0.4-0.1-0.1-0.1-0.1-0.3-0.1-0.1-0.1-0.3l0.2-1.2q0-0.1 0-0.3 0-0.1-0.1-0.2l-0.9-0.9q-0.1-0.1-0.2-0.3 0-0.1 0-0.3 0.1-0.1 0.2-0.2 0.1-0.2 0.3-0.2l1.2-0.2q0.2 0 0.3-0.1 0.1 0 0.2-0.2l0.5-1.1q0.1-0.1 0.2-0.2 0.2-0.1 0.3-0.1 0.2 0 0.3 0.1 0.2 0.1 0.2 0.2l0.6 1.1q0.1 0.2 0.2 0.2 0.1 0.1 0.2 0.1l1.2 0.2q0.2 0 0.3 0.2 0.2 0.1 0.2 0.2 0.1 0.2 0 0.3 0 0.2-0.1 0.3l-0.9 0.9q-0.1 0.1-0.2 0.2 0 0.2 0 0.3l0.2 1.2q0.1 0.2 0 0.3-0.1 0.2-0.2 0.3-0.1 0.1-0.3 0.1-0.2 0-0.3-0.1l-1.1-0.5q-0.1-0.1-0.3-0.1-0.1 0-0.2 0.1z"/>
	<g id="Layer">
		<path id="Layer" fill-rule="evenodd" class="s1" d="m13.5 10.5q0-3.3 0-6.6 0-0.5 0-1c0-1.2 0.8-1.9 1.9-1.9q6.6 0 13.2 0 0.9 0 1.8 0c1.3 0 2 0.7 2 2q0 8.2 0 16.4v0.5h0.4q2.1 0 4.2 0c1.2 0 1.9 0.8 1.9 1.9q0 4.6 0 9.2c0 1.2-0.7 1.9-1.8 1.9q-14.1 0-28.2 0c-1.1 0-1.9-0.7-1.9-1.8q0-9.4 0-18.8c0-1.1 0.8-1.8 1.9-1.8q2.1 0 4.2 0c0 0 0.4 0 0.4 0zm-5.3 5.9q0 0.2 0 0.4 0 7 0 14.1c0 0.7 0.2 0.9 0.8 0.9q6.5 0 13 0h0.4q0-0.7-0.1-1.2c-3.8 0-8.2 0-12.1 0q-0.1 0-0.3 0c-0.3-0.1-0.5-0.3-0.5-0.6 0-0.4 0.2-0.6 0.5-0.6q0.2 0 0.4 0 5.8 0 11.6 0h0.5c0-2.4 0-5.2 0-7.5 0-1.3 0.7-2 1.9-2q0.2 0 0.4 0v-3.5zm17.8-3.6h5.3q0-0.1 0-0.1 0-4.9 0-9.9 0-0.6-0.7-0.6-4.4 0-8.7 0c-0.2 0-0.3 0.1-0.4 0.2q-0.5 0.8-0.9 1.7c-0.1 0.3-0.3 0.5-0.7 0.5q-2.4-0.1-4.7-0.1-0.2 0-0.4 0v6q0.2 0 0.4 0 4.5 0 8.9 0c1.1 0 1.9 0.7 1.9 1.8q0 0.2 0 0.5zm-1.6 8.3c-0.6 0-0.8 0.2-0.8 0.8q0 4.5 0 9c0 0.7 0.2 0.9 0.8 0.9q6.3 0 12.6 0c0.6 0 0.8-0.2 0.8-0.9q0-4.5 0-9c0-0.6-0.2-0.8-0.8-0.8q-3.2 0-6.3 0-3.1 0-6.3 0zm0.4-5.9q0-1.5 0-2.8c0-0.5-0.2-0.8-0.7-0.8q-7.6 0-15.1 0c-0.6 0-0.8 0.3-0.8 0.8q0 1.2 0 2.5 0 0.1 0 0.3h16.6zm6.5 4.7v-5.9h-5.3q0 0.1 0 0.2 0 2.8 0 5.7zm-11-17.7c-1.7 0-3.4 0-5 0-0.3 0-0.5 0.2-0.6 0.5q0 0.3 0 0.6 0.1 0.1 0.1 0.1 2.4 0 4.7 0c0.1 0 0.2-0.1 0.3-0.2 0.1-0.3 0.3-0.6 0.5-1z"/>
		<path id="Layer" fill-rule="evenodd" class="s1" d="m16.5 28.2c-2.7 0-4.8-2.1-4.8-4.7 0-2.6 2.1-4.8 4.8-4.8 2.6 0 4.7 2.2 4.7 4.8 0 2.6-2.1 4.7-4.7 4.7zm-2.6-2.3q0 0 0 0 0 0 0 0zm5.1 0.1c1.4-1.5 1.3-3.9-0.2-5.2-1.8-1.5-4.1-0.8-4.9 0.3 1 0.3 1.4 1.1 1.4 2.1q0 0.3 0 0.5c0 1.1-0.4 1.8-1.4 2.2 1.3 1.5 3.7 1.5 5.1 0.1zm-5.8-1.2c0.7-0.1 0.9-0.3 0.9-1q0-0.3 0-0.7c0-0.7-0.2-0.8-0.9-0.9q-0.5 1.3 0 2.6z"/>
		<path id="Layer" class="s1" d="m28.9 7.5q0-0.6 0-1.1c0-0.4 0.2-0.7 0.6-0.7 0.3 0 0.6 0.3 0.6 0.7q0 1.1 0 2.3c0 0.3-0.3 0.6-0.6 0.6-0.4 0-0.6-0.3-0.6-0.7q0-0.5 0-1.1z"/>
		<path id="Layer" fill-rule="evenodd" class="s1" d="m28.9 30.6q-1.7 0-3.4 0c-0.5 0-0.8-0.2-0.8-0.8q0-3.4 0-6.8c0-0.5 0.3-0.7 0.8-0.7q3.4 0 6.8 0c0.5 0 0.7 0.2 0.7 0.7q0 3.4 0 6.8c0 0.6-0.2 0.8-0.7 0.8q-1.7 0-3.4 0zm-2.9-1.2h5.8v-5.9h-5.8z"/>
		<path id="Layer" class="s1" d="m35.4 24.7q-0.3 0-0.6 0c-0.4-0.1-0.6-0.3-0.6-0.6 0-0.4 0.2-0.6 0.6-0.6q0.6 0 1.2 0c0.4 0 0.6 0.3 0.6 0.6 0 0.3-0.3 0.5-0.6 0.6q0 0-0.1 0-0.2 0-0.5 0z"/>
		<path id="Layer" class="s1" d="m35.4 27q-0.3 0-0.6 0c-0.3 0-0.6-0.2-0.6-0.6 0-0.3 0.2-0.5 0.6-0.6q0.6 0 1.2 0c0.3 0.1 0.6 0.3 0.6 0.6 0 0.3-0.3 0.6-0.6 0.6q-0.3 0-0.6 0z"/>
		<path id="Layer" class="s1" d="m16.5 12.8q1.4 0 2.8 0c0.4 0 0.7 0.2 0.7 0.6 0 0.4-0.3 0.6-0.7 0.6q-2.8 0-5.6 0c-0.5 0-0.8-0.2-0.8-0.6 0-0.4 0.3-0.6 0.8-0.6q1.4 0 2.8 0z"/>
		<path id="Layer" class="s1" d="m28.9 17q0-0.6 0-1.2c0-0.4 0.2-0.6 0.6-0.6 0.3 0 0.6 0.2 0.6 0.6q0 1.2 0 2.3c0 0.4-0.3 0.6-0.6 0.6-0.4 0-0.6-0.2-0.6-0.6q0-0.6 0-1.1z"/>
	</g>
</svg>